<?xml version="1.0" encoding="UTF-8"?>
<svg version="1.1" xmlns="http://www.w3.org/2000/svg" width="397" height="68">
<path d="M0 0 C1.65322266 0.01740234 1.65322266 0.01740234 3.33984375 0.03515625 C4.99693359 0.04869141 4.99693359 0.04869141 6.6875 0.0625 C7.54214844 0.07410156 8.39679688 0.08570313 9.27734375 0.09765625 C8.58432695 4.83002553 7.89053621 9.56228048 7.19604492 14.29443359 C6.96015779 15.90247571 6.72447787 17.51054824 6.48901367 19.11865234 C6.14947823 21.43725588 5.80918449 23.75574707 5.46875 26.07421875 C5.31243858 27.14332993 5.31243858 27.14332993 5.15296936 28.23403931 C4.57012978 32.19770055 3.93611462 36.14503106 3.27734375 40.09765625 C8.88734375 40.42765625 14.49734375 40.75765625 20.27734375 41.09765625 C20.52484375 38.97328125 20.77234375 36.84890625 21.02734375 34.66015625 C22.42863306 23.08882736 24.39120562 11.59760522 26.27734375 0.09765625 C30.56734375 0.09765625 34.85734375 0.09765625 39.27734375 0.09765625 C38.80158862 3.5356603 38.32189285 6.97303409 37.83984375 10.41015625 C37.6377832 11.87485352 37.6377832 11.87485352 37.43164062 13.36914062 C37.29951172 14.30693359 37.16738281 15.24472656 37.03125 16.2109375 C36.91080322 17.07501221 36.79035645 17.93908691 36.66625977 18.8293457 C36.27734375 21.09765625 36.27734375 21.09765625 35.27734375 24.09765625 C37.25734375 24.09765625 39.23734375 24.09765625 41.27734375 24.09765625 C41.36298584 23.44168457 41.44862793 22.78571289 41.53686523 22.10986328 C41.92580876 19.14695925 42.32025648 16.18481372 42.71484375 13.22265625 C42.9169043 11.67384766 42.9169043 11.67384766 43.12304688 10.09375 C43.32124023 8.61455078 43.32124023 8.61455078 43.5234375 7.10546875 C43.64388428 6.1942627 43.76433105 5.28305664 43.88842773 4.34423828 C44.27734375 2.09765625 44.27734375 2.09765625 45.27734375 0.09765625 C50.55734375 0.09765625 55.83734375 0.09765625 61.27734375 0.09765625 C63.14858103 4.46387656 64.84653781 8.56160544 66.3203125 13.03125 C66.8472168 14.62163086 66.8472168 14.62163086 67.38476562 16.24414062 C67.74119141 17.33017578 68.09761719 18.41621094 68.46484375 19.53515625 C68.83287109 20.64826172 69.20089844 21.76136719 69.58007812 22.90820312 C70.48191181 25.63712843 71.38091774 28.36695079 72.27734375 31.09765625 C72.60734375 31.09765625 72.93734375 31.09765625 73.27734375 31.09765625 C74.92734375 20.86765625 76.57734375 10.63765625 78.27734375 0.09765625 C82.56734375 0.09765625 86.85734375 0.09765625 91.27734375 0.09765625 C90.96911754 2.38990165 90.65563501 4.6814408 90.33984375 6.97265625 C90.07880859 8.88691406 90.07880859 8.88691406 89.8125 10.83984375 C89.27734375 14.09765625 89.27734375 14.09765625 88.27734375 16.09765625 C89.59734375 16.09765625 90.91734375 16.09765625 92.27734375 16.09765625 C91.78234375 17.58265625 91.78234375 17.58265625 91.27734375 19.09765625 C89.95734375 19.09765625 88.63734375 19.09765625 87.27734375 19.09765625 C87.23996094 19.82726562 87.20257813 20.556875 87.1640625 21.30859375 C86.55139806 31.03914659 84.98854295 40.50848336 83.27734375 50.09765625 C85.25734375 49.76765625 87.23734375 49.43765625 89.27734375 49.09765625 C91.91734375 32.92765625 94.55734375 16.75765625 97.27734375 0.09765625 C101.56734375 0.09765625 105.85734375 0.09765625 110.27734375 0.09765625 C110.27734375 0.75765625 110.27734375 1.41765625 110.27734375 2.09765625 C111.26734375 2.42765625 112.25734375 2.75765625 113.27734375 3.09765625 C113.27734375 3.75765625 113.27734375 4.41765625 113.27734375 5.09765625 C111.95734375 5.09765625 110.63734375 5.09765625 109.27734375 5.09765625 C109.19097656 5.90460937 109.10460937 6.7115625 109.015625 7.54296875 C107.32594225 22.14554811 104.75290969 36.61205895 102.27734375 51.09765625 C101.65988281 51.14664063 101.04242188 51.195625 100.40625 51.24609375 C96.1331274 51.62332527 92.03540051 52.08864003 87.875 53.15234375 C82.49519076 54.42890865 77.21662278 54.31732617 71.71484375 54.22265625 C70.70615234 54.21363281 69.69746094 54.20460937 68.65820312 54.1953125 C66.19765918 54.17198981 63.73763479 54.13926388 61.27734375 54.09765625 C61.27734375 53.43765625 61.27734375 52.77765625 61.27734375 52.09765625 C62.59734375 51.76765625 63.91734375 51.43765625 65.27734375 51.09765625 C64.85839844 50.00453125 64.43945312 48.91140625 64.0078125 47.78515625 C62.06395241 42.60152935 60.32615406 37.35371044 58.58984375 32.09765625 C58.26951172 31.13214844 57.94917969 30.16664062 57.61914062 29.171875 C56.83715826 26.81425653 56.0565903 24.45618008 55.27734375 22.09765625 C54.94734375 22.09765625 54.61734375 22.09765625 54.27734375 22.09765625 C54.14457031 23.01289063 54.01179688 23.928125 53.875 24.87109375 C53.69839844 26.05960938 53.52179688 27.248125 53.33984375 28.47265625 C53.07880859 30.24769531 53.07880859 30.24769531 52.8125 32.05859375 C52.27734375 35.09765625 52.27734375 35.09765625 51.27734375 37.09765625 C53.58734375 37.09765625 55.89734375 37.09765625 58.27734375 37.09765625 C58.27734375 38.08765625 58.27734375 39.07765625 58.27734375 40.09765625 C55.63734375 40.09765625 52.99734375 40.09765625 50.27734375 40.09765625 C50.38046875 41.19078125 50.48359375 42.28390625 50.58984375 43.41015625 C50.27734375 47.09765625 50.27734375 47.09765625 48.33984375 48.91015625 C45.71186839 49.92916711 43.32785842 50.58272245 40.5859375 51.171875 C39.37442017 51.4342395 39.37442017 51.4342395 38.13842773 51.7019043 C37.52427002 51.83250244 36.9101123 51.96310059 36.27734375 52.09765625 C36.91792086 48.13845348 37.56569183 44.18046138 38.21484375 40.22265625 C38.39724609 39.09472656 38.57964844 37.96679688 38.76757812 36.8046875 C39.03344727 35.19013672 39.03344727 35.19013672 39.3046875 33.54296875 C39.54819946 32.05047607 39.54819946 32.05047607 39.79663086 30.52783203 C40.27734375 28.09765625 40.27734375 28.09765625 41.27734375 26.09765625 C38.96734375 26.09765625 36.65734375 26.09765625 34.27734375 26.09765625 C34.26316406 27.03867187 34.24898437 27.9796875 34.234375 28.94921875 C33.79607787 40.39232751 33.79607787 40.39232751 31.15234375 43.66015625 C30.20359375 44.46453125 29.25484375 45.26890625 28.27734375 46.09765625 C26.97990234 47.40089844 26.97990234 47.40089844 25.65625 48.73046875 C19.68453235 52.96226499 11.33226046 51.60597052 4.33984375 51.41015625 C2.78193675 51.38504701 1.22399086 51.36223845 -0.33398438 51.34179688 C-4.13117594 51.28699535 -7.92648479 51.20087349 -11.72265625 51.09765625 C-11.39265625 50.10765625 -11.06265625 49.11765625 -10.72265625 48.09765625 C-16.33265625 48.09765625 -21.94265625 48.09765625 -27.72265625 48.09765625 C-27.72265625 47.43765625 -27.72265625 46.77765625 -27.72265625 46.09765625 C-21.78265625 45.76765625 -15.84265625 45.43765625 -9.72265625 45.09765625 C-9.72265625 43.77765625 -9.72265625 42.45765625 -9.72265625 41.09765625 C-11.37265625 41.09765625 -13.02265625 41.09765625 -14.72265625 41.09765625 C-14.72265625 40.10765625 -14.72265625 39.11765625 -14.72265625 38.09765625 C-12.74265625 38.09765625 -10.76265625 38.09765625 -8.72265625 38.09765625 C-8.64917969 37.02777466 -8.64917969 37.02777466 -8.57421875 35.9362793 C-7.99181952 28.18748265 -6.97691811 20.57660463 -5.72265625 12.91015625 C-5.54476562 11.78029297 -5.366875 10.65042969 -5.18359375 9.48632812 C-3.67425195 0.13178809 -3.67425195 0.13178809 0 0 Z " fill="#000000" transform="translate(63.72265625,-0.09765625)"/>
<path d="M0 0 C5.28 0 10.56 0 16 0 C18.94183772 7.12028863 21.46221357 14.27069942 23.75 21.625 C24.06582031 22.62917969 24.38164062 23.63335938 24.70703125 24.66796875 C25.47481527 27.11091792 26.23907632 29.55490713 27 32 C28.82427895 25.22880244 30.00760679 18.41956093 31.125 11.5 C31.30675781 10.39140625 31.48851562 9.2828125 31.67578125 8.140625 C32.12016116 5.42756872 32.56049286 2.71384991 33 0 C36.96 0 40.92 0 45 0 C44.85761163 2.04190981 44.71092972 4.08352045 44.5625 6.125 C44.48128906 7.26195312 44.40007812 8.39890625 44.31640625 9.5703125 C44.02269035 12.7540478 43.56875687 15.85510907 43 19 C44.98 19.33 46.96 19.66 49 20 C48.979375 19.05898438 48.95875 18.11796875 48.9375 17.1484375 C48.958125 15.90320312 48.97875 14.65796875 49 13.375 C49 12.14523437 49 10.91546875 49 9.6484375 C50.19474717 5.28947712 51.33526032 3.58979507 55.0625 1.10302734 C61.97213907 -1.49153294 69.733956 -0.5929402 77 -0.375 C78.74604786 -0.3448678 80.49214569 -0.31749772 82.23828125 -0.29296875 C86.49343176 -0.2272169 90.74616109 -0.12387972 95 0 C94.34 4.29 93.68 8.58 93 13 C86.565 14.98 86.565 14.98 80 17 C79 15 79 15 80 10 C74.06 10 68.12 10 62 10 C61.58427734 12.85398437 61.58427734 12.85398437 61.16015625 15.765625 C60.79437626 18.26043213 60.42848506 20.75522295 60.0625 23.25 C59.88009766 24.50425781 59.69769531 25.75851563 59.50976562 27.05078125 C59.33251953 28.25605469 59.15527344 29.46132813 58.97265625 30.703125 C58.72914429 32.36843262 58.72914429 32.36843262 58.48071289 34.06738281 C58 37 58 37 57 41 C63.27 41 69.54 41 76 41 C76.33 37.37 76.66 33.74 77 30 C73.7 30 70.4 30 67 30 C68.29621807 26.11134578 70.01037729 24.63928058 73.2578125 22.23046875 C78.77371699 19.7553834 85.08674245 20.58422408 91 21 C91.03924323 25.16468745 90.98387679 28.94150823 90 33 C91.485 33.495 91.485 33.495 93 34 C93 34.66 93 35.32 93 36 C91.68 36 90.36 36 89 36 C89 36.86625 89 37.7325 89 38.625 C87.49336183 43.70990382 84.35165279 45.09889814 80 48 C84.29 48.33 88.58 48.66 93 49 C93 49.66 93 50.32 93 51 C76.24335085 51.74044913 59.75613225 52.16003992 43 51 C44.32 41.76 45.64 32.52 47 23 C45.68 23 44.36 23 43 23 C41.68 28.28 40.36 33.56 39 39 C39.99 39 40.98 39 42 39 C42 39.66 42 40.32 42 41 C41.01 41 40.02 41 39 41 C38.90912109 41.95712891 38.90912109 41.95712891 38.81640625 42.93359375 C38.73261719 43.75988281 38.64882813 44.58617187 38.5625 45.4375 C38.48128906 46.26121094 38.40007812 47.08492187 38.31640625 47.93359375 C38 50 38 50 37 51 C34.13732433 51.07325168 31.299281 51.09238205 28.4375 51.0625 C27.63119141 51.05798828 26.82488281 51.05347656 25.99414062 51.04882812 C23.99606244 51.03700518 21.99802217 51.01906914 20 51 C19.82082031 50.39599365 19.64164062 49.7919873 19.45703125 49.16967773 C18.78797768 46.98232873 18.08991813 45.01379405 17 43 C14.42919865 41.86559222 14.42919865 41.86559222 12 42 C12 41.34 12 40.68 12 40 C13.32 40 14.64 40 16 40 C14.02 34.06 12.04 28.12 10 22 C9.67 22 9.34 22 9 22 C7.68 30.25 6.36 38.5 5 47 C6.98 47.33 8.96 47.66 11 48 C11 48.66 11 49.32 11 50 C1.1 50.99 1.1 50.99 -9 52 C-7.68 44.08 -6.36 36.16 -5 28 C-6.32 27.67 -7.64 27.34 -9 27 C-9 26.34 -9 25.68 -9 25 C-7.35 25 -5.7 25 -4 25 C-3.87882812 23.865625 -3.75765625 22.73125 -3.6328125 21.5625 C-3.46382749 20.04163488 -3.29454047 18.5208033 -3.125 17 C-3.00705078 15.88431641 -3.00705078 15.88431641 -2.88671875 14.74609375 C-2.31465792 9.68555567 -1.32985265 4.91710223 0 0 Z " fill="#000000" transform="translate(297,0)"/>
<path d="M0 0 C0.79056793 0.00707474 1.58113586 0.01414948 2.3956604 0.0214386 C4.90278683 0.04926662 7.40761962 0.11197651 9.9140625 0.17578125 C11.62106133 0.20087941 13.32809542 0.22368992 15.03515625 0.24414062 C19.20399898 0.29905434 23.37114288 0.38524049 27.5390625 0.48828125 C26.8790625 5.10828125 26.2190625 9.72828125 25.5390625 14.48828125 C15.9140625 17.48828125 15.9140625 17.48828125 12.5390625 17.48828125 C12.8690625 15.17828125 13.1990625 12.86828125 13.5390625 10.48828125 C7.5990625 10.48828125 1.6590625 10.48828125 -4.4609375 10.48828125 C-4.4609375 12.79828125 -4.4609375 15.10828125 -4.4609375 17.48828125 C-4.7909375 18.14828125 -5.1209375 18.80828125 -5.4609375 19.48828125 C4.7690625 19.48828125 14.9990625 19.48828125 25.5390625 19.48828125 C24.8790625 23.77828125 24.2190625 28.06828125 23.5390625 32.48828125 C25.8490625 32.48828125 28.1590625 32.48828125 30.5390625 32.48828125 C30.4978125 31.42609375 30.4565625 30.36390625 30.4140625 29.26953125 C30.4140625 23.41024598 31.52054942 17.74150378 32.5390625 11.98828125 C32.72984375 10.8796875 32.920625 9.77109375 33.1171875 8.62890625 C33.58521691 5.91433569 34.06132289 3.20115975 34.5390625 0.48828125 C38.8290625 0.48828125 43.1190625 0.48828125 47.5390625 0.48828125 C46.5490625 6.42828125 45.5590625 12.36828125 44.5390625 18.48828125 C50.8090625 18.81828125 57.0790625 19.14828125 63.5390625 19.48828125 C64.1990625 14.86828125 64.8590625 10.24828125 65.5390625 5.48828125 C63.5590625 5.48828125 61.5790625 5.48828125 59.5390625 5.48828125 C59.5390625 4.49828125 59.5390625 3.50828125 59.5390625 2.48828125 C61.8490625 2.48828125 64.1590625 2.48828125 66.5390625 2.48828125 C66.5390625 1.82828125 66.5390625 1.16828125 66.5390625 0.48828125 C70.4990625 0.48828125 74.4590625 0.48828125 78.5390625 0.48828125 C76.93558578 16.59484589 74.18070692 32.52750597 71.5390625 48.48828125 C65.1040625 50.46828125 65.1040625 50.46828125 58.5390625 52.48828125 C59.21938538 44.09763245 60.28744008 35.81217795 61.5390625 27.48828125 C60.5490625 28.14828125 59.5590625 28.80828125 58.5390625 29.48828125 C55.77250926 29.63074022 53.11252944 29.6759757 50.3515625 29.61328125 C49.60197266 29.60425781 48.85238281 29.59523438 48.08007812 29.5859375 C46.23293596 29.56240703 44.38595838 29.52653686 42.5390625 29.48828125 C42.35730469 31.02548828 42.35730469 31.02548828 42.171875 32.59375 C42.00295791 33.95447104 41.8336673 35.31514575 41.6640625 36.67578125 C41.58542969 37.34931641 41.50679687 38.02285156 41.42578125 38.71679688 C40.91432917 42.74939978 40.08014006 45.63558734 38.5390625 49.48828125 C42.1690625 49.81828125 45.7990625 50.14828125 49.5390625 50.48828125 C49.5390625 51.14828125 49.5390625 51.80828125 49.5390625 52.48828125 C46.26872322 52.6851713 42.99778309 52.86917133 39.7265625 53.05078125 C38.3334082 53.13489258 38.3334082 53.13489258 36.91210938 53.22070312 C36.01943359 53.26904297 35.12675781 53.31738281 34.20703125 53.3671875 C33.38485107 53.41431885 32.5626709 53.4614502 31.71557617 53.51000977 C29.5390625 53.48828125 29.5390625 53.48828125 26.5390625 52.48828125 C26.84793703 50.05027159 27.16100912 47.61292758 27.4765625 45.17578125 C27.56357422 44.48548828 27.65058594 43.79519531 27.74023438 43.08398438 C28.13116385 40.08685837 28.5805629 37.36378006 29.5390625 34.48828125 C27.2290625 34.48828125 24.9190625 34.48828125 22.5390625 34.48828125 C22.52488281 35.0915625 22.51070312 35.69484375 22.49609375 36.31640625 C22.1016697 42.92567405 22.1016697 42.92567405 18.9765625 46.05078125 C18.1721875 46.52515625 17.3678125 46.99953125 16.5390625 47.48828125 C18.8490625 48.14828125 21.1590625 48.80828125 23.5390625 49.48828125 C23.5390625 49.81828125 23.5390625 50.14828125 23.5390625 50.48828125 C14.15660714 51.69188916 4.85373731 51.60131688 -4.5859375 51.55078125 C-6.22656113 51.54575562 -7.86718626 51.5411946 -9.5078125 51.53710938 C-13.49222492 51.5261893 -17.4765644 51.50898343 -21.4609375 51.48828125 C-20.8009375 47.19828125 -20.1409375 42.90828125 -19.4609375 38.48828125 C-18.2234375 38.01390625 -16.9859375 37.53953125 -15.7109375 37.05078125 C-15.01484375 36.78394531 -14.31875 36.51710937 -13.6015625 36.2421875 C-11.57034747 35.52681432 -9.5574084 34.97462473 -7.4609375 34.48828125 C-7.4609375 36.13828125 -7.4609375 37.78828125 -7.4609375 39.48828125 C-1.8509375 39.81828125 3.7590625 40.14828125 9.5390625 40.48828125 C9.8690625 38.50828125 10.1990625 36.52828125 10.5390625 34.48828125 C7.5690625 34.48828125 4.5990625 34.48828125 1.5390625 34.48828125 C1.5390625 33.82828125 1.5390625 33.16828125 1.5390625 32.48828125 C-5.0609375 32.15828125 -11.6609375 31.82828125 -18.4609375 31.48828125 C-17.90744911 26.82316483 -17.34360687 22.16621967 -16.72558594 17.51025391 C-16.50176078 15.80018016 -16.2957601 14.08778774 -16.09375 12.375 C-15.96742188 11.52550781 -15.84109375 10.67601562 -15.7109375 9.80078125 C-15.61296875 9.07503906 -15.515 8.34929688 -15.4140625 7.6015625 C-12.29386315 0.68341559 -6.79193298 -0.23169626 0 0 Z " fill="#000000" transform="translate(193.4609375,-0.48828125)"/>
<path d="M0 0 C5.19603804 -0.12369707 10.39121744 -0.21438309 15.58837891 -0.2746582 C17.35578338 -0.29978641 19.1230841 -0.33389516 20.89013672 -0.37719727 C23.43222649 -0.43792735 25.97294165 -0.46622515 28.515625 -0.48828125 C29.69865204 -0.52699089 29.69865204 -0.52699089 30.90557861 -0.56648254 C34.84925849 -0.56849391 36.59347745 -0.38260946 39.51513672 2.3671875 C42.07681167 6.9092958 40.84715385 11.04206682 40 16 C39.88398437 16.77601562 39.76796875 17.55203125 39.6484375 18.3515625 C38.93599189 22.08142479 38.14954774 23.85757358 35.375 26.5 C34.59125 26.995 33.8075 27.49 33 28 C33.99 28.33 34.98 28.66 36 29 C36 29.66 36 30.32 36 31 C26.43 31 16.86 31 7 31 C6.38389606 36.41421858 6.38389606 36.41421858 5.77368164 41.82910156 C5.69496826 42.5094043 5.61625488 43.18970703 5.53515625 43.890625 C5.456604 44.58188477 5.37805176 45.27314453 5.29711914 45.98535156 C4.99787922 48.01438015 4.49743469 50.01026125 4 52 C0.04 52 -3.92 52 -8 52 C-7.67 49.03 -7.34 46.06 -7 43 C-8.98 43 -10.96 43 -13 43 C-12.67 42.01 -12.34 41.02 -12 40 C-10.02 40 -8.04 40 -6 40 C-5.93631226 38.95730957 -5.93631226 38.95730957 -5.87133789 37.89355469 C-5.27902287 29.55868944 -3.9670779 21.45916319 -2.4375 13.25 C-2.20353516 11.96867188 -1.96957031 10.68734375 -1.72851562 9.3671875 C-1.1574513 6.24381526 -0.58119835 3.12149946 0 0 Z M10 10 C9.67 13.3 9.34 16.6 9 20 C14.94 20 20.88 20 27 20 C27.66 16.7 28.32 13.4 29 10 C22.73 10 16.46 10 10 10 Z " fill="#000000" transform="translate(13,0)"/>
<path d="M0 0 C1.07765625 0.03609375 2.1553125 0.0721875 3.265625 0.109375 C4.49539063 0.17898438 4.49539063 0.17898438 5.75 0.25 C5.0874147 7.97434967 3.99276937 15.59920106 2.75 23.25 C2.53537109 24.57644531 2.53537109 24.57644531 2.31640625 25.9296875 C1.47956505 30.83530835 0.58132607 35.72948619 -0.3125 40.625 C-0.49876953 41.64722656 -0.68503906 42.66945312 -0.87695312 43.72265625 C-1.33423498 46.23184384 -1.79206312 48.74093187 -2.25 51.25 C-6.21 51.25 -10.17 51.25 -14.25 51.25 C-13.67749585 42.10945072 -12.5908015 33.15950835 -11.09326172 24.13452148 C-10.74421432 22.02757607 -10.40478583 19.91922935 -10.06640625 17.81054688 C-8.39186914 7.53373828 -8.39186914 7.53373828 -7.25 5.25 C-8.24 4.92 -9.23 4.59 -10.25 4.25 C-7.0246569 0.27312065 -5.05259733 -0.21967814 0 0 Z " fill="#000000" transform="translate(285.25,-0.25)"/>
<path d="M0 0 C1.22589844 0.01353516 1.22589844 0.01353516 2.4765625 0.02734375 C3.41628906 0.04474609 3.41628906 0.04474609 4.375 0.0625 C4.705 1.3825 5.035 2.7025 5.375 4.0625 C2.075 3.7325 -1.225 3.4025 -4.625 3.0625 C-4.955 4.7125 -5.285 6.3625 -5.625 8.0625 C-4.965 7.7325 -4.305 7.4025 -3.625 7.0625 C-3.625 6.4025 -3.625 5.7425 -3.625 5.0625 C-0.985 5.0625 1.655 5.0625 4.375 5.0625 C3.5 8.9375 3.5 8.9375 2.375 10.0625 C0.52212498 10.13476502 -1.33333878 10.1463122 -3.1875 10.125 C-4.19941406 10.11597656 -5.21132813 10.10695313 -6.25390625 10.09765625 C-7.03636719 10.08605469 -7.81882812 10.07445313 -8.625 10.0625 C-9.625 7.0625 -9.625 7.0625 -8.3125 3.9375 C-5.92241956 -0.13448889 -4.45884424 -0.06369777 0 0 Z " fill="#000000" transform="translate(29.625,57.9375)"/>
<path d="M0 0 C1.62490954 -0.02698189 3.24994633 -0.04638757 4.875 -0.0625 C5.77992188 -0.07410156 6.68484375 -0.08570313 7.6171875 -0.09765625 C10 0 10 0 12 1 C11.30058404 4.14737182 10.23921302 7.02588876 9 10 C7.68 9.67 6.36 9.34 5 9 C5.33 8.34 5.66 7.68 6 7 C3.52733235 7.34444881 3.52733235 7.34444881 1 8 C0.67 8.66 0.34 9.32 0 10 C-0.99 10 -1.98 10 -3 10 C-2.48792856 6.24480943 -1.7824918 3.33311475 0 0 Z M2 3 C2 3.66 2 4.32 2 5 C3.65 5 5.3 5 7 5 C7.33 4.34 7.66 3.68 8 3 C6.02 3 4.04 3 2 3 Z " fill="#000000" transform="translate(202,58)"/>
<path d="M0 0 C1.32 0 2.64 0 4 0 C6.25 2.5 6.25 2.5 8 5 C8.66 3.35 9.32 1.7 10 0 C11.32 0 12.64 0 14 0 C13.01 2.97 12.02 5.94 11 9 C8.75 9.75 8.75 9.75 6 10 C3.6875 8.0625 3.6875 8.0625 2 6 C1.34 7.32 0.68 8.64 0 10 C-0.99 10 -1.98 10 -3 10 C-2.39009109 6.44219804 -1.4216319 3.3171411 0 0 Z " fill="#000000" transform="translate(358,58)"/>
<path d="M0 0 C1.62418745 -0.08090971 3.24951745 -0.13914995 4.875 -0.1875 C5.77992187 -0.22230469 6.68484375 -0.25710937 7.6171875 -0.29296875 C8.79667969 -0.14794922 8.79667969 -0.14794922 10 0 C10.66 0.99 11.32 1.98 12 3 C10.625 6.6875 10.625 6.6875 9 10 C7.68 9.67 6.36 9.34 5 9 C5.33 8.34 5.66 7.68 6 7 C3.52733235 7.34444881 3.52733235 7.34444881 1 8 C0.67 8.66 0.34 9.32 0 10 C-0.99 10 -1.98 10 -3 10 C-2.48792856 6.24480943 -1.7824918 3.33311475 0 0 Z M2 3 C2 3.66 2 4.32 2 5 C3.65 5 5.3 5 7 5 C7.33 4.34 7.66 3.68 8 3 C6.02 3 4.04 3 2 3 Z " fill="#000000" transform="translate(62,58)"/>
<path d="M0 0 C0.66 3.3 1.32 6.6 2 10 C-2.95 10 -7.9 10 -13 10 C-8.60546875 4.82421875 -8.60546875 4.82421875 -7 3 C-6.52175781 2.42894531 -6.04351562 1.85789063 -5.55078125 1.26953125 C-4 0 -4 0 0 0 Z M-4 4 C-4.33 4.66 -4.66 5.32 -5 6 C-4.34 6 -3.68 6 -3 6 C-3.33 5.34 -3.66 4.68 -4 4 Z " fill="#000000" transform="translate(249,58)"/>
<path d="M0 0 C1.37478516 0.01740234 1.37478516 0.01740234 2.77734375 0.03515625 C3.69644531 0.04417969 4.61554688 0.05320313 5.5625 0.0625 C6.27277344 0.07410156 6.98304688 0.08570313 7.71484375 0.09765625 C7.05484375 2.07765625 6.39484375 4.05765625 5.71484375 6.09765625 C3.40484375 6.42765625 1.09484375 6.75765625 -1.28515625 7.09765625 C1.68484375 7.59265625 1.68484375 7.59265625 4.71484375 8.09765625 C4.71484375 8.75765625 4.71484375 9.41765625 4.71484375 10.09765625 C1.08484375 10.09765625 -2.54515625 10.09765625 -6.28515625 10.09765625 C-3.05639648 0.13061523 -3.05639648 0.13061523 0 0 Z " fill="#000000" transform="translate(321.28515625,57.90234375)"/>
<path d="M0 0 C0.66 3.3 1.32 6.6 2 10 C-2.95 10 -7.9 10 -13 10 C-8.60546875 4.82421875 -8.60546875 4.82421875 -7 3 C-6.52175781 2.42894531 -6.04351562 1.85789063 -5.55078125 1.26953125 C-4 0 -4 0 0 0 Z M-4 4 C-4.33 4.66 -4.66 5.32 -5 6 C-4.01 5.67 -3.02 5.34 -2 5 C-2.66 4.67 -3.32 4.34 -4 4 Z " fill="#000000" transform="translate(109,58)"/>
<path d="M0 0 C1.32 0.33 2.64 0.66 4 1 C4 2.98 4 4.96 4 7 C4.66 7 5.32 7 6 7 C6.268125 6.401875 6.53625 5.80375 6.8125 5.1875 C8.00987475 2.98180967 9.04478984 1.56416813 11 0 C11.99 0 12.98 0 14 0 C12.41947153 4.10937401 9.58011153 7.47028794 6 10 C3.125 9.875 3.125 9.875 1 9 C0.67 6.03 0.34 3.06 0 0 Z " fill="#000000" transform="translate(279,58)"/>
<path d="M0 0 C2.86724686 0.57344937 3.8614515 0.8614515 6 3 C6.5775 2.505 7.155 2.01 7.75 1.5 C10 0 10 0 14 0 C14 0.66 14 1.32 14 2 C8.58823529 6 8.58823529 6 6 6 C5.67 7.32 5.34 8.64 5 10 C4.01 10 3.02 10 2 10 C2.04125 9.278125 2.0825 8.55625 2.125 7.8125 C1.99078695 4.79270631 1.24829381 2.73064271 0 0 Z " fill="#000000" transform="translate(139,58)"/>
<path d="M0 0 C-0.33 0.99 -0.66 1.98 -1 3 C-3.97 3 -6.94 3 -10 3 C-10 2.34 -10 1.68 -10 1 C-6.78548731 -0.60725635 -3.56387464 -0.05748185 0 0 Z " fill="#000000" transform="translate(397,14)"/>
</svg>
