<?xml version="1.0" encoding="UTF-8"?>
<svg clip-rule="evenodd" fill-rule="evenodd" stroke-linejoin="round" stroke-miterlimit="2" version="1.1" viewBox="0 0 500 281" xml:space="preserve" xmlns="http://www.w3.org/2000/svg"><title>Wuthering Waves logo</title><desc>Video game by Kuro Games</desc>
    <g transform="matrix(.15397 0 0 .2398 204.13 99.98)">
        <path d="m1034.3 429.87v19.888c0 11.681-16.99 15.929-23.55 15.929h-104.28c-13.538 0-28.974-3.965-34.968-19.404-1.635-4.212-0.177 0-0.177 0s-0.049 14.922-0.049 15.464c0 16.299 23.704 22.226 32.852 22.226h169.8c9.15 0 32.85-5.927 32.85-22.226 0-0.542 0.25-40.192 0.25-40.192h-0.04s0.04-10.695 0.04-11.083c0-6.459-6.02-10.266-10.95-13.098-18.62-10.683-100.78-51.002-100.78-51.002s-23.485-12.096-30.371-17.134c-4.592-3.36-10.946-6.639-10.946-13.097 0-0.389 0.035-11.083 0.035-11.083v-31.584s-0.035-10.694-0.035-11.083c0-11.681 16.989-15.929 23.545-15.929h88.83c13.54 0 28.97 3.965 34.97 19.404 0 0 0.22-14.922 0.22-15.464 0-16.299-23.7-22.226-32.85-22.226h-153.37c-9.148 0-32.852 5.927-32.852 22.226 0 0.542 0.049 15.464 0.049 15.464l-0.026 48.904h0.012s-0.035 10.695-0.035 11.083c0 6.459 5.999 10.287 10.946 13.098 18.803 10.683 101.88 51.002 101.88 51.002s21.548 10.931 28.048 15.736c4.57 3.383 10.95 6.639 10.95 13.098 0 0.388-0.04 11.083-0.04 11.083h0.04z"/>
    </g>
    <g transform="matrix(.12853 0 0 .2631 187.56 115.27)">
        <path d="m1066.3 246.46v47.263c-13.17-19.048-27.94-33.118-81.688-47.263h81.688z"/>
    </g>
    <g transform="matrix(.2398 0 0 .2398 -30.231 152.58)">
        <path d="m1504.1 226.95c-3.85 15.439-13.76 19.404-22.45 19.404h-69.19v-184.47c0-28.328-13.04-34.752-24.1-34.752h88.83c8.69 0 18.6 3.965 22.45 19.404 1.05 4.212 0.11 0 0.11 0s0.04-14.922 0.04-15.464c0-16.299-15.22-22.226-21.1-22.226h-130.1-0.02c7.93 0 19.37 12.668 19.37 38.712v217.09h115.21c5.88 0 21.1-5.926 21.1-22.226 0-0.542-0.04-15.464-0.04-15.464s0.94-4.211-0.11 0z"/>
    </g>
    <g transform="matrix(.24191 1.6639e-18 -1.1647e-17 .29114 99.661 41.881)">
        <path d="m555.96 387.51 65.088 0.023 43.966 194.32 6.301 0.141c13.989 0.311 12.435-5.902 15.609-22.47l40.273-172.02h43.463l-43.463 196.16c-1.687 9.17-11.222 14.831-20.166 14.526h-85.046l-41.644-188.59c-3.879-9.521-15.678-21.774-24.382-22.098l1e-3 0.012"/>
    </g>
    <g transform="matrix(.2398 0 0 .2398 25.53 71.854)">
        <path d="m705.39 345.47c12.218 5.644 23.267 18.318 17.456 45.109l-40.357 210.69 45.909-1e-3 22.576-117.86h42.197c8.563 0 18.307 3.847 22.275 18.717 1.16 4.344 18.598 99.145 18.598 99.145h45.909l-47.983-255.8h-126.58zm49.474 117.63h36.641c6.511 0 13.705 0.595 18.523 7.63 1.02 1.49-16.121-84.859-16.121-84.859-4.843-19.519-10.878-21.837-22.177-21.852h-14.783c8.638 1.067 13.558 6.533 13.401 12.681-0.079 3.058-0.675 7.947-1.594 13.883l-13.89 72.517z"/>
    </g>
    <g transform="matrix(.24056 0 0 .25971 1.5356 60.271)">
        <path d="m479.99 363.57v0.013l46.1 0.028c14.62-0.449 21.646 10.765 23.169 16.951l41.165 201.95h0.048l30.588-146.33-8.474-35.483h15.699c9.619 0 18.991 6.714 20.457 13.695l35.309 168.17 40.073-194.19c1.539-9.732-4.176-22.561-13.149-24.815l32.002 0.019c16.255 0.01 26.846 9.1 26.3 20.115 0.059 6.235-42.426 215.99-42.426 215.99l-72.719 0.053-20.272-84.686-14.765 84.567-72.503-0.045-43.335-211.18c-3.379-10.7-14.554-24.47-23.267-24.835"/>
    </g>
    <g transform="matrix(.2398 -7.5382e-18 7.5382e-18 -.30135 134.62 185.38)">
        <path d="m1367.9 165.96v94.832c0 9.569-9.04 15.105-19.61 15.105h-40.9c10.57 0 19.62-5.536 19.62-15.105v-64.162c-0.01-5.072-6.73-13.545-17.04-13.531h-45.98v144.29c0 22.542-13.04 27.654-24.11 27.654h59.6c11.06 0 30.16-8.979 30.16-31.521h42.63v12.65c0 24.335-21.1 33.364-33.32 33.364l-140.65 0.058c7.92 0 19.37-10.08 19.37-30.804v-155.69c-0.02-10.365 13.44-17.127 21.5-17.139h45.71c22.93 0 42.13 9.776 42.13 13.548v-13.548h40.89"/>
    </g>
    <g transform="matrix(.2398 0 0 .2398 48.81 71.879)">
        <path d="m1367.9 264.64 46.32 0.117v-202.88c0-28.328-13.04-34.752-24.1-34.752h63.83c11.06 0 24.1 6.424 24.1 34.752v202.87 9e-3l46.31 0.116v-205.65c0-24.387-19.99-50.377-53.12-50.377h-122.71c7.93 0 19.37 12.668 19.37 38.712v217.19-0.108z"/>
    </g>
    <g transform="matrix(.2398 0 0 .2398 25.792 71.905)">
        <path d="m1348.5 8.846c7.93 0 19.37 12.668 19.37 38.712v217.09l44.05 0.109v-233.68c0-16.299-15.21-22.226-21.09-22.226h-42.33z"/>
    </g>
    <g transform="matrix(.2398 0 0 .2398 -23.751 71.879)">
        <path d="m1348.5 8.846c7.93 0 19.37 12.668 19.37 38.712v217.19h47.06v-202.87c0-28.328-13.04-34.752-24.1-34.752h61.62c11.07 0 30.16 10.511 30.16 38.84v30.446c0 20.923-27.27 30.178-43.08 30.178h5.58c15.35 0 37.5 20.255 37.5 61.896v57.351c0 41.212 48.37 47.237 73.63 47.237h0.73c-9.15 0-33.32-5.619-33.32-41.93 0-1.467 0.23-60.484 0.23-62.658 0-41.641-22.03-61.896-37.29-61.896 12.22 0 33.32-8.764 33.32-28.367v-47.454c0-30.582-21.1-41.929-33.32-41.929h-138.09z"/>
    </g>
    <g transform="matrix(.12853 0 0 .2631 150.15 34.571)">
        <path d="m1066.3 246.46v47.263c-13.17-19.048-27.94-33.118-81.688-47.263h81.688z"/>
    </g>
    <g transform="matrix(.2398 0 0 .2398 -67.646 71.879)">
        <path d="m1504.1 226.95c-3.85 15.439-13.76 19.404-22.45 19.404h-69.19v-184.47c0-28.328-13.04-34.752-24.1-34.752h88.83c8.69 0 18.6 3.965 22.45 19.404 1.05 4.212 0.11 0 0.11 0s0.04-14.922 0.04-15.464c0-16.299-15.22-22.226-21.1-22.226h-130.1-0.02c7.93 0 19.37 12.668 19.37 38.712v217.09h115.21c5.88 0 21.1-5.926 21.1-22.226 0-0.542-0.04-15.464-0.04-15.464s0.94-4.211-0.11 0z"/>
    </g>
    <g transform="matrix(.2398 0 0 .2398 -93.341 71.905)">
        <path d="m1343.8 131.21c11.07 0 24.1 6.424 24.1 34.752v98.794h44.05v-1e-3 -233.68c0-16.299-15.21-22.226-21.09-22.226h-42.33c7.93 0 19.37 12.668 19.37 38.712v78.529c-4.45-12.144-13.34-15.41-21.23-15.41h-66.07v-79.497c0-16.299-15.22-22.226-21.1-22.226h-42.33c7.93 0 19.38 12.668 19.38 38.712v217.2h44.05v-133.65h63.2z"/>
    </g>
    <g transform="matrix(.25634 1.0707e-8 1.0707e-8 .2398 -176.44 85.992)">
        <path d="m1310.2-23.96h39.6v229.97h41v-229.97h37.97c4.43 0 14.51 3.778 18.26 13.809 0 0 0.03-16.981 0.03-17.523 0-16.3-14.24-22.227-19.73-22.227h0.04-115.73c-5.5 0-19.73 5.927-19.73 22.227 0 0.542 0.02 17.523 0.02 17.523 3.76-10.031 13.84-13.809 18.27-13.809z"/>
    </g>
    <g transform="matrix(.2398 0 0 .2398 -222.94 71.905)">
        <path d="m1478.7 8.846c7.93 0 19.37 12.668 19.37 38.712v179.4s-5.35 28.907-42.45 28.907c-43.66 0-43.66-28.907-43.66-28.907v-195.88c0-16.299-15.21-22.226-21.09-22.226h-42.33c7.93 0 19.37 12.668 19.37 38.712v187.26s10.55 37.496 87.71 37.496c92.98 0 87.7-45.364 87.7-45.364v-195.88c0-16.299-15.22-22.226-21.09-22.226h-43.53z"/>
    </g>
    <g transform="matrix(.24056 0 0 .25971 -88.922 -20.343)">
        <path d="m479.99 363.57v0.013l46.1 0.028c14.62-0.449 21.646 10.765 23.169 16.951l41.165 201.95h0.048l30.588-146.33-8.474-35.483h15.699c9.619 0 18.991 6.714 20.457 13.695l35.309 168.17 40.073-194.19c1.539-9.732-4.176-22.561-13.149-24.815l32.002 0.019c16.255 0.01 26.846 9.1 26.3 20.115 0.059 6.235-42.426 215.99-42.426 215.99l-72.719 0.053-20.272-84.686-14.765 84.567-72.503-0.045-43.335-211.18c-3.379-10.7-14.554-24.47-23.267-24.835"/>
    </g>
</svg>
